<svg fill="none" height="25" viewBox="0 0 126 25" width="126" xmlns="http://www.w3.org/2000/svg" xmlns:xlink="http://www.w3.org/1999/xlink"><clipPath id="a"><path d="M.7 0h125v25H.7z"/></clipPath><g clip-path="url(#a)"><g fill="#1d1f32"><path d="M34 5.8v14.3h3.3v-8.8h.1L41 20H43l3.4-8.7h.1v8.8H50V5.8h-4.3l-3.6 8.9h-.2l-3.7-8.9z"/><path d="M52.2 20.1h10v-2.8h-6.6v-3h6.1v-2.7h-6v-3h6.5V5.8h-10z"/><path d="M69.7 20.1c4.4 0 7.1-2.7 7.1-7.1 0-4.5-2.7-7.2-7.1-7.2h-5.3v14.3zm-1.9-3V8.9h1.7c2.5 0 3.8 1 3.8 4.2 0 3-1.3 4.2-3.7 4.2z"/><path d="M78.8 20.1h10v-2.8h-6.5v-3h6v-2.7h-6v-3h6.6V5.8H78.8z"/><path d="M94.3 5.8h-4l5 14.3h4.6l4.8-14.3h-3.9l-3.2 10.5h-.1z"/><path d="M109.7 5.8h-3.4v14.3h3.4z"/><path d="M125.5 13c0-4.8-3-7.4-6.9-7.4-3.9 0-6.9 2.6-6.9 7.4 0 4.7 3 7.3 7 7.3 3.8 0 6.8-2.6 6.8-7.3zm-3.6 0c0 2.8-1.2 4.3-3.3 4.3-2 0-3.3-1.5-3.3-4.3s1.2-4.4 3.3-4.4c2.1 0 3.3 1.6 3.3 4.4z"/></g><path d="M23.6 2.2a7.4 7.4 0 0 0-10.5 0L2.9 12.4a7.4 7.4 0 0 0 0 10.4 7.4 7.4 0 0 0 10.5 0l5-5c.5-.5.5-1 0-1.5L10.2 8l4.4-4.4a5.4 5.4 0 0 1 7.7 0 5.4 5.4 0 0 1 0 7.8L20.5 13a1 1 0 1 0 1.4 1.3l1.7-1.7a7.4 7.4 0 0 0 0-10.4zM16.4 17 12 21.4a5.4 5.4 0 0 1-7.7 0 5.4 5.4 0 0 1 0-7.7l4.4-4.4zm3.1-10.9c-.6-.6-1.7-.6-2.3 0l-2.4 2.4a1 1 0 0 1-1.4 0 1 1 0 0 1 0-1.4l2.4-2.3a3.6 3.6 0 0 1 5.1 0A1 1 0 1 1 19.5 6zm-14 14.1A1 1 0 1 1 7 19c.7.6 1.7.6 2.4 0l2.4-2.4a1 1 0 0 1 1.4 1.3l-2.4 2.4a3.6 3.6 0 0 1-5.2 0z" fill="#07a996"/></g></svg>